<svg width="1766" height="416" viewBox="0 0 1766 416" fill="none" xmlns="http://www.w3.org/2000/svg">
<path d="M394.255 201.587C396.001 201.514 397.492 201.223 398.729 200.714C399.965 200.205 401.02 199.513 401.893 198.641C402.766 197.695 403.493 196.531 404.075 195.149C404.73 193.767 405.348 192.166 405.93 190.348L430.808 112.003C431.972 108.73 432.591 106.439 432.663 105.129C432.809 103.747 432.882 102.838 432.882 102.401C432.882 100.001 432.19 98.2186 430.808 97.0547C429.426 95.8181 427.208 95.1997 424.152 95.1997V93.7812H450.34C450.34 93.854 450.631 95.127 451.213 97.6003C451.795 100.074 452.559 103.383 453.504 107.53C454.45 111.603 455.541 116.295 456.778 121.606C458.014 126.843 459.287 132.299 460.597 137.973C461.979 143.647 463.325 149.357 464.634 155.104C465.943 160.778 467.18 166.052 468.344 170.925L487.112 112.003C488.275 108.73 488.894 106.439 488.967 105.129C489.112 103.747 489.185 102.838 489.185 102.401C489.185 100.001 488.494 98.2186 487.112 97.0547C485.729 95.8181 483.511 95.1997 480.456 95.1997V93.7812H506.643L507.08 95.8544C507.371 97.1638 507.771 98.8733 508.28 100.983C508.789 103.092 509.298 105.311 509.807 107.639C510.389 109.894 510.935 112.076 511.444 114.186C511.953 116.295 512.353 117.968 512.644 119.205L513.081 121.387C514.172 125.752 515.336 129.535 516.573 132.735C517.882 135.863 519.3 138.482 520.828 140.591C522.356 142.701 524.029 144.374 525.847 145.611C527.666 146.847 529.666 147.757 531.849 148.339H502.715C504.825 148.702 506.934 149.357 509.044 150.303C511.226 151.248 513.263 152.485 515.154 154.013C517.045 155.54 518.755 157.432 520.282 159.687C521.81 161.942 523.01 164.56 523.883 167.543L529.994 193.949C530.721 196.786 531.849 198.786 533.376 199.95C534.904 201.041 537.086 201.587 539.923 201.587V202.787H502.169V201.587C505.734 201.587 508.098 200.896 509.262 199.513C509.771 198.859 510.171 198.168 510.462 197.44C510.753 196.64 510.899 195.731 510.899 194.712C510.899 193.476 510.68 192.021 510.244 190.348L505.443 169.943C504.352 165.433 502.569 161.723 500.096 158.814C497.623 155.831 494.931 153.503 492.022 151.83C489.185 150.084 486.384 148.884 483.62 148.23C480.856 147.502 478.71 147.138 477.182 147.138L476.637 148.775C476.491 149.357 476.273 150.012 475.982 150.739C475.764 151.394 475.509 152.194 475.218 153.14C474.2 156.486 473.399 159.468 472.818 162.087C472.308 164.706 471.981 166.997 471.835 168.961C471.835 170.925 471.799 172.526 471.726 173.762C471.726 174.999 471.726 175.908 471.726 176.49C471.726 182.31 472.381 188.093 473.69 193.839C474.418 196.749 475.545 198.786 477.073 199.95C478.601 201.041 480.783 201.587 483.62 201.587V202.787H445.866V201.587C449.431 201.587 451.795 200.896 452.959 199.513C454.05 198.204 454.595 196.604 454.595 194.712C454.595 193.621 454.413 192.166 454.05 190.348C452.231 182.71 450.522 175.508 448.921 168.743C447.321 161.978 445.793 155.54 444.339 149.43C443.102 144.265 441.865 139.209 440.629 134.263C439.465 129.244 438.41 124.733 437.464 120.733C436.519 116.659 435.719 113.276 435.064 110.585C434.409 107.893 434.045 106.329 433.973 105.893C433.682 106.839 433.282 108.148 432.772 109.821C432.263 111.494 431.681 113.386 431.027 115.495C430.372 117.605 429.644 119.86 428.844 122.26C428.044 124.588 427.28 126.916 426.553 129.244C425.68 132.008 424.771 134.881 423.825 137.864C422.879 140.773 421.897 143.865 420.879 147.138C420.879 147.211 420.515 148.339 419.788 150.521C419.133 152.63 418.297 155.322 417.278 158.595C416.26 161.869 415.132 165.397 413.896 169.18C412.659 172.962 411.495 176.527 410.404 179.873C409.385 183.219 408.476 186.092 407.676 188.493C406.949 190.821 406.548 192.13 406.476 192.421C406.258 193.512 406.148 194.421 406.148 195.149C406.148 195.658 406.221 196.313 406.367 197.113C406.585 197.84 407.094 198.568 407.894 199.295C409.422 200.823 411.677 201.587 414.659 201.587V202.787H394.255V201.587ZM482.965 129.134C481.074 134.663 479.146 140.664 477.182 147.138H515.372C513.117 146.702 510.935 146.011 508.825 145.065C506.789 144.12 504.861 142.81 503.042 141.137C501.296 139.464 499.696 137.318 498.241 134.699C496.859 132.008 495.695 128.698 494.75 124.77C494.386 123.315 494.059 121.933 493.768 120.623C493.477 119.241 493.149 117.932 492.786 116.695C492.276 114.513 491.767 112.403 491.258 110.367C490.821 108.257 490.494 106.73 490.276 105.784C490.058 106.657 489.694 107.93 489.185 109.603C488.676 111.276 488.094 113.167 487.439 115.277C486.784 117.386 486.057 119.641 485.257 122.042C484.456 124.442 483.693 126.807 482.965 129.134ZM539.219 93.7812H576.645V95.0906C572.79 95.0906 570.244 96.0363 569.007 97.9276C567.843 99.8189 567.261 102.62 567.261 106.329V123.57C567.261 126.843 567.807 129.935 568.898 132.844C569.989 135.681 571.59 138.191 573.699 140.373C575.882 142.556 578.537 144.338 581.665 145.72C584.793 147.102 588.43 147.939 592.576 148.23H558.86C560.896 148.23 562.497 148.702 563.661 149.648C564.825 150.521 565.697 151.685 566.279 153.14C566.861 154.522 567.225 156.049 567.371 157.722C567.516 159.323 567.589 160.85 567.589 162.305V174.854C567.589 179.218 568.353 182.964 569.88 186.092C571.408 189.148 573.481 191.657 576.1 193.621C578.719 195.585 581.774 197.004 585.265 197.877C588.757 198.75 592.467 199.186 596.395 199.186C601.051 199.186 605.124 198.422 608.616 196.895C612.18 195.294 615.126 193.258 617.454 190.784C619.782 188.311 621.528 185.583 622.692 182.601C623.928 179.545 624.547 176.527 624.547 173.544V106.329C624.547 104.293 624.401 102.583 624.11 101.201C623.892 99.7462 623.419 98.5823 622.692 97.7094C622.037 96.7637 621.091 96.109 619.855 95.7453C618.618 95.3088 617.018 95.0906 615.054 95.0906V93.7812H635.567V95.0906C633.531 95.0906 631.894 95.3452 630.657 95.8544C629.421 96.2909 628.438 96.9819 627.711 97.9276C627.056 98.8733 626.62 100.074 626.402 101.528C626.183 102.911 626.074 104.511 626.074 106.329V172.017C626.074 178.127 624.91 183.219 622.583 187.293C620.328 191.366 617.345 194.64 613.635 197.113C609.998 199.586 605.924 201.332 601.414 202.35C596.904 203.369 592.467 203.878 588.102 203.878C583.52 203.878 578.9 203.587 574.245 203.005C569.662 202.496 565.479 201.223 561.697 199.186C557.987 197.149 554.895 194.094 552.422 190.02C550.021 185.947 548.785 180.418 548.712 173.435V159.141C548.566 155.504 547.875 152.594 546.639 150.412C545.402 148.23 543.111 147.138 539.765 147.138H573.808C570.462 146.92 567.261 146.447 564.206 145.72C561.151 144.92 558.46 143.756 556.132 142.228C553.877 140.701 552.058 138.773 550.676 136.445C549.367 134.117 548.712 131.28 548.712 127.934V106.329C548.712 102.329 548.057 99.4552 546.748 97.7094C545.511 95.9635 543.002 95.0906 539.219 95.0906V93.7812ZM639.103 148.339C642.813 147.684 645.723 146.52 647.832 144.847C649.942 143.101 651.506 141.028 652.524 138.627C653.616 136.227 654.27 133.572 654.488 130.662C654.779 127.68 654.925 124.588 654.925 121.387V106.329C654.925 104.293 654.779 102.583 654.488 101.201C654.27 99.7462 653.834 98.5823 653.179 97.7094C652.524 96.7637 651.579 96.109 650.342 95.7453C649.106 95.3088 647.505 95.0906 645.541 95.0906V93.7812H691.806C696.825 93.7812 701.371 94.545 705.445 96.0727C709.519 97.5275 712.938 99.6007 715.702 102.292C718.466 104.911 720.43 107.857 721.594 111.13C722.758 114.331 723.34 117.532 723.34 120.733C723.34 121.169 723.34 121.606 723.34 122.042C723.34 122.478 723.304 122.951 723.231 123.46C722.794 126.879 721.885 129.825 720.503 132.299C719.121 134.699 717.411 136.809 715.375 138.627C713.338 140.446 711.01 142.046 708.391 143.428C705.845 144.738 703.226 145.974 700.535 147.138L721.594 191.548C722.103 192.712 722.722 193.876 723.449 195.04C724.176 196.204 724.977 197.295 725.85 198.313C726.795 199.259 727.814 200.059 728.905 200.714C730.069 201.296 731.342 201.587 732.724 201.587V202.787H696.389L696.279 201.587H711.883C709.41 200.423 707.446 198.786 705.991 196.676C704.609 194.567 703.372 192.457 702.281 190.348L684.932 154.558C683.622 155.504 682.349 156.486 681.112 157.504C679.949 158.45 678.785 159.541 677.621 160.778C675.22 163.687 673.547 167.07 672.602 170.925C671.656 174.708 671.183 178.2 671.183 181.4C671.183 181.91 671.183 182.964 671.183 184.565C671.256 186.092 671.583 188.02 672.165 190.348C673.111 194.058 675.075 196.858 678.057 198.75C681.04 200.641 684.422 201.587 688.205 201.587V202.787H645.541V201.587C647.578 201.514 649.215 201.259 650.451 200.823C651.688 200.386 652.634 199.732 653.288 198.859C653.943 197.986 654.379 196.858 654.598 195.476C654.816 194.094 654.925 192.385 654.925 190.348V159.577C654.925 157.541 654.779 155.795 654.488 154.34C654.27 152.885 653.797 151.721 653.07 150.848C652.415 149.975 651.47 149.357 650.233 148.993C648.996 148.557 647.396 148.339 645.432 148.339H639.103ZM674.02 147.138C670.674 154.485 668.091 161.942 666.273 169.507C664.454 177.072 663.254 184.928 662.672 193.076C663.254 187.838 664.236 183.219 665.618 179.218C667.073 175.217 668.746 171.653 670.637 168.525C672.602 165.324 674.711 162.487 676.966 160.014C679.294 157.468 681.658 155.031 684.059 152.703C686.314 150.521 688.532 148.375 690.715 146.265C692.897 144.156 694.861 141.937 696.607 139.609C698.353 137.209 699.844 134.627 701.081 131.862C702.317 129.025 703.117 125.788 703.481 122.151C703.554 121.424 703.59 120.769 703.59 120.187C703.663 119.532 703.699 118.878 703.699 118.223C703.699 115.968 703.408 113.495 702.826 110.803C702.317 108.112 701.299 105.529 699.771 103.056C698.171 100.583 696.098 98.655 693.552 97.2729C691.078 95.8181 688.205 95.0906 684.932 95.0906H682.967C679.112 95.0906 676.566 95.8908 675.329 97.4911C674.093 99.0188 673.474 101.528 673.474 105.02V124.77C673.474 128.552 672.929 131.753 671.838 134.372C670.747 136.918 669.328 139.064 667.582 140.81C665.836 142.483 663.909 143.829 661.799 144.847C659.69 145.793 657.616 146.556 655.58 147.138H674.02ZM719.448 148.339C723.085 147.829 726.54 146.957 729.813 145.72C733.087 144.41 735.924 142.701 738.324 140.591C740.798 138.409 742.762 135.827 744.217 132.844C745.671 129.789 746.399 126.297 746.399 122.369V106.329C746.399 102.183 745.744 99.2734 744.435 97.6003C743.198 95.9272 740.689 95.0906 736.906 95.0906V93.7812H774.332V95.0906C770.622 95.0906 768.113 95.9999 766.803 97.8185C765.494 99.6371 764.839 102.474 764.839 106.329V124.224C764.839 127.643 764.112 130.735 762.657 133.499C761.275 136.191 759.384 138.518 756.983 140.482C754.583 142.446 751.746 144.01 748.472 145.174C745.271 146.265 741.852 146.92 738.215 147.138H773.459C770.404 147.284 768.258 147.939 767.022 149.102C765.785 150.266 765.058 152.303 764.839 155.213V190.348C764.839 192.166 764.948 193.803 765.167 195.258C765.385 196.64 765.821 197.804 766.476 198.75C767.203 199.695 768.186 200.423 769.422 200.932C770.659 201.368 772.296 201.587 774.332 201.587V202.787H736.906V201.587C738.943 201.587 740.579 201.405 741.816 201.041C743.053 200.605 743.998 199.95 744.653 199.077C745.381 198.131 745.853 196.967 746.072 195.585C746.29 194.13 746.399 192.385 746.399 190.348V148.339H719.448ZM780.678 201.587C782.569 201.587 784.133 201.405 785.37 201.041C786.607 200.677 787.552 200.095 788.207 199.295C788.934 198.422 789.444 197.331 789.735 196.022C790.025 194.64 790.171 193.003 790.171 191.112V157.613C790.171 153.831 789.553 151.176 788.316 149.648C787.152 148.12 784.861 147.284 781.442 147.138H814.831C811.194 146.92 807.848 146.265 804.792 145.174C801.81 144.01 799.228 142.446 797.045 140.482C794.863 138.518 793.153 136.191 791.917 133.499C790.753 130.735 790.171 127.643 790.171 124.224V106.329C790.171 102.62 789.516 99.8189 788.207 97.9276C786.97 96.0363 784.497 95.0906 780.787 95.0906V93.7812H818.104V95.0906C814.394 95.0906 811.921 95.9272 810.685 97.6003C809.884 98.5459 809.339 99.7098 809.048 101.092C808.83 102.474 808.72 104.22 808.72 106.329V119.314C808.72 124.188 809.339 128.371 810.575 131.862C811.812 135.281 813.558 138.155 815.813 140.482C818.068 142.737 820.687 144.52 823.669 145.829C826.724 147.066 830.071 147.902 833.708 148.339H799.991C803.41 148.484 805.702 149.321 806.866 150.848C808.102 152.376 808.72 154.995 808.72 158.705V192.203C808.793 195.476 809.448 197.877 810.685 199.404C811.921 200.859 814.394 201.587 818.104 201.587H845.492C847.311 201.587 848.875 200.932 850.184 199.623C851.566 198.313 852.766 196.458 853.785 194.058C854.876 191.584 855.858 188.638 856.731 185.219C857.604 181.8 858.477 177.981 859.35 173.762L860.55 174.09L853.894 210.861L852.585 210.643C852.657 210.279 852.694 209.952 852.694 209.661C852.694 209.443 852.694 209.152 852.694 208.788C852.694 207.77 852.512 206.824 852.148 205.951C851.784 205.078 851.13 204.387 850.184 203.878C849.238 203.296 848.184 202.969 847.02 202.896C845.856 202.823 844.692 202.787 843.528 202.787H780.678V201.587ZM893.962 147.138C890.689 146.92 887.561 146.447 884.578 145.72C881.596 144.92 878.941 143.792 876.613 142.337C874.285 140.81 872.612 139.1 871.594 137.209C870.575 135.245 870.066 133.208 870.066 131.098C870.066 130.735 870.066 130.335 870.066 129.898C870.139 129.462 870.212 129.025 870.284 128.589C871.157 123.642 873.267 118.987 876.613 114.622C879.959 110.185 884.069 106.329 888.943 103.056C893.817 99.7098 899.2 97.0911 905.092 95.1997C910.984 93.2357 916.949 92.2536 922.987 92.2536C930.77 92.2536 938.081 93.7449 944.919 96.7273C951.757 99.6371 957.722 103.674 962.814 108.839C967.978 113.931 972.016 119.932 974.925 126.843C977.908 133.681 979.399 140.992 979.399 148.775C979.399 156.559 977.908 163.869 974.925 170.707C972.016 177.545 967.978 183.51 962.814 188.602C957.722 193.694 951.757 197.731 944.919 200.714C938.081 203.623 930.77 205.078 922.987 205.078C915.931 205.078 909.275 203.878 903.019 201.478C896.836 199.004 891.271 195.658 886.324 191.439C881.45 187.147 877.34 182.128 873.994 176.381C870.648 170.562 868.393 164.306 867.229 157.613C866.938 156.013 866.611 154.558 866.247 153.249C865.956 151.939 865.483 150.848 864.829 149.975C864.247 149.03 863.446 148.339 862.428 147.902C861.482 147.393 860.246 147.138 858.718 147.138H893.962ZM876.831 148.339C878.577 148.339 879.959 148.666 880.978 149.321C881.996 149.903 882.796 150.703 883.378 151.721C884.033 152.74 884.469 153.903 884.687 155.213C884.978 156.449 885.233 157.722 885.451 159.032C885.96 164.851 886.942 170.453 888.397 175.836C889.925 181.219 892.144 185.947 895.053 190.02C897.963 194.094 901.673 197.368 906.183 199.841C910.766 202.241 916.367 203.442 922.987 203.442C930.552 203.442 936.772 201.878 941.645 198.75C946.592 195.549 950.484 191.366 953.321 186.201C956.158 181.037 958.122 175.217 959.213 168.743C960.377 162.196 960.959 155.54 960.959 148.775C960.959 142.01 960.377 135.354 959.213 128.807C958.122 122.26 956.158 116.404 953.321 111.24C950.484 106.075 946.592 101.928 941.645 98.8005C936.772 95.5998 930.552 93.9995 922.987 93.9995C918.04 93.9995 913.566 94.7633 909.566 96.2909C905.637 97.8185 902.182 99.928 899.2 102.62C896.29 105.311 893.853 108.439 891.889 112.003C889.998 115.568 888.652 119.423 887.852 123.57C887.779 124.079 887.706 124.588 887.634 125.097C887.634 125.534 887.634 125.97 887.634 126.407C887.634 128.08 887.924 129.935 888.506 131.971C889.088 134.008 890.216 136.081 891.889 138.191C893.562 140.301 895.635 142.155 898.109 143.756C900.582 145.283 903.382 146.447 906.51 147.247C907.383 147.538 908.402 147.684 909.566 147.684C911.02 147.684 912.403 147.429 913.712 146.92C915.094 146.411 916.294 145.683 917.313 144.738C918.331 143.719 919.168 142.483 919.822 141.028C920.477 139.573 920.841 137.9 920.914 136.009C921.059 139.5 922.114 142.265 924.078 144.301C926.042 146.265 929.097 147.611 933.243 148.339C929.315 149.066 926.26 150.412 924.078 152.376C921.968 154.267 920.914 157.031 920.914 160.669C920.55 156.595 918.986 153.54 916.222 151.503C913.457 149.393 910.257 148.339 906.619 148.339H876.831ZM1027.31 201.587C1029.06 201.514 1030.55 201.223 1031.79 200.714C1033.02 200.205 1034.08 199.513 1034.95 198.641C1035.82 197.695 1036.55 196.531 1037.13 195.149C1037.79 193.767 1038.41 192.166 1038.99 190.348L1063.87 112.003C1065.03 108.73 1065.65 106.439 1065.72 105.129C1065.87 103.747 1065.94 102.838 1065.94 102.401C1065.94 100.001 1065.25 98.2186 1063.87 97.0547C1062.48 95.8181 1060.26 95.1997 1057.21 95.1997V93.7812H1083.4C1083.4 93.854 1083.69 95.127 1084.27 97.6003C1084.85 100.074 1085.62 103.383 1086.56 107.53C1087.51 111.603 1088.6 116.295 1089.84 121.606C1091.07 126.843 1092.34 132.299 1093.65 137.973C1095.04 143.647 1096.38 149.357 1097.69 155.104C1099 160.778 1100.24 166.052 1101.4 170.925L1120.17 112.003C1121.33 108.73 1121.95 106.439 1122.02 105.129C1122.17 103.747 1122.24 102.838 1122.24 102.401C1122.24 100.001 1121.55 98.2186 1120.17 97.0547C1118.79 95.8181 1116.57 95.1997 1113.51 95.1997V93.7812H1139.7L1140.14 95.8544C1140.43 97.1638 1140.83 98.8733 1141.34 100.983C1141.85 103.092 1142.36 105.311 1142.86 107.639C1143.45 109.894 1143.99 112.076 1144.5 114.186C1145.01 116.295 1145.41 117.968 1145.7 119.205L1146.14 121.387C1147.23 125.752 1148.39 129.535 1149.63 132.735C1150.94 135.863 1152.36 138.482 1153.89 140.591C1155.41 142.701 1157.09 144.374 1158.9 145.611C1160.72 146.847 1162.72 147.757 1164.91 148.339H1135.77C1137.88 148.702 1139.99 149.357 1142.1 150.303C1144.28 151.248 1146.32 152.485 1148.21 154.013C1150.1 155.54 1151.81 157.432 1153.34 159.687C1154.87 161.942 1156.07 164.56 1156.94 167.543L1163.05 193.949C1163.78 196.786 1164.91 198.786 1166.43 199.95C1167.96 201.041 1170.14 201.587 1172.98 201.587V202.787H1135.23V201.587C1138.79 201.587 1141.16 200.896 1142.32 199.513C1142.83 198.859 1143.23 198.168 1143.52 197.44C1143.81 196.64 1143.96 195.731 1143.96 194.712C1143.96 193.476 1143.74 192.021 1143.3 190.348L1138.5 169.943C1137.41 165.433 1135.63 161.723 1133.15 158.814C1130.68 155.831 1127.99 153.503 1125.08 151.83C1122.24 150.084 1119.44 148.884 1116.68 148.23C1113.91 147.502 1111.77 147.138 1110.24 147.138L1109.69 148.775C1109.55 149.357 1109.33 150.012 1109.04 150.739C1108.82 151.394 1108.57 152.194 1108.28 153.14C1107.26 156.486 1106.46 159.468 1105.87 162.087C1105.37 164.706 1105.04 166.997 1104.89 168.961C1104.89 170.925 1104.86 172.526 1104.78 173.762C1104.78 174.999 1104.78 175.908 1104.78 176.49C1104.78 182.31 1105.44 188.093 1106.75 193.839C1107.48 196.749 1108.6 198.786 1110.13 199.95C1111.66 201.041 1113.84 201.587 1116.68 201.587V202.787H1078.92V201.587C1082.49 201.587 1084.85 200.896 1086.02 199.513C1087.11 198.204 1087.65 196.604 1087.65 194.712C1087.65 193.621 1087.47 192.166 1087.11 190.348C1085.29 182.71 1083.58 175.508 1081.98 168.743C1080.38 161.978 1078.85 155.54 1077.4 149.43C1076.16 144.265 1074.92 139.209 1073.69 134.263C1072.52 129.244 1071.47 124.733 1070.52 120.733C1069.58 116.659 1068.78 113.276 1068.12 110.585C1067.47 107.893 1067.1 106.329 1067.03 105.893C1066.74 106.839 1066.34 108.148 1065.83 109.821C1065.32 111.494 1064.74 113.386 1064.08 115.495C1063.43 117.605 1062.7 119.86 1061.9 122.26C1061.1 124.588 1060.34 126.916 1059.61 129.244C1058.74 132.008 1057.83 134.881 1056.88 137.864C1055.94 140.773 1054.95 143.865 1053.94 147.138C1053.94 147.211 1053.57 148.339 1052.85 150.521C1052.19 152.63 1051.35 155.322 1050.34 158.595C1049.32 161.869 1048.19 165.397 1046.95 169.18C1045.72 172.962 1044.55 176.527 1043.46 179.873C1042.44 183.219 1041.53 186.092 1040.73 188.493C1040.01 190.821 1039.61 192.13 1039.53 192.421C1039.31 193.512 1039.21 194.421 1039.21 195.149C1039.21 195.658 1039.28 196.313 1039.42 197.113C1039.64 197.84 1040.15 198.568 1040.95 199.295C1042.48 200.823 1044.73 201.587 1047.72 201.587V202.787H1027.31V201.587ZM1116.02 129.134C1114.13 134.663 1112.2 140.664 1110.24 147.138H1148.43C1146.17 146.702 1143.99 146.011 1141.88 145.065C1139.85 144.12 1137.92 142.81 1136.1 141.137C1134.35 139.464 1132.75 137.318 1131.3 134.699C1129.92 132.008 1128.75 128.698 1127.81 124.77C1127.44 123.315 1127.12 121.933 1126.82 120.623C1126.53 119.241 1126.21 117.932 1125.84 116.695C1125.33 114.513 1124.82 112.403 1124.32 110.367C1123.88 108.257 1123.55 106.73 1123.33 105.784C1123.12 106.657 1122.75 107.93 1122.24 109.603C1121.73 111.276 1121.15 113.167 1120.5 115.277C1119.84 117.386 1119.11 119.641 1118.31 122.042C1117.51 124.442 1116.75 126.807 1116.02 129.134ZM1175.43 202.787V201.587C1177.1 201.441 1178.52 201.114 1179.68 200.605C1180.85 200.095 1181.83 199.404 1182.63 198.531C1183.43 197.586 1184.12 196.458 1184.7 195.149C1185.36 193.767 1185.97 192.166 1186.56 190.348L1211.43 112.003C1212.53 108.73 1213.11 106.402 1213.18 105.02C1213.33 103.638 1213.4 102.765 1213.4 102.401C1213.4 100.001 1212.74 98.2186 1211.43 97.0547C1210.13 95.8181 1207.91 95.1997 1204.78 95.1997V93.7812H1230.97L1231.4 95.8544C1231.69 97.1638 1232.09 98.8733 1232.6 100.983C1233.11 103.092 1233.62 105.311 1234.13 107.639C1234.71 109.894 1235.26 112.076 1235.77 114.186C1236.28 116.295 1236.68 117.968 1236.97 119.205L1237.4 121.387C1238.5 125.752 1239.66 129.535 1240.9 132.735C1242.13 135.863 1243.51 138.482 1245.04 140.591C1246.57 142.701 1248.24 144.374 1250.06 145.611C1251.88 146.847 1253.88 147.757 1256.06 148.339H1226.93C1229.04 148.702 1231.18 149.357 1233.37 150.303C1235.55 151.248 1237.59 152.485 1239.48 154.013C1241.37 155.54 1243.08 157.432 1244.61 159.687C1246.13 161.942 1247.33 164.56 1248.21 167.543C1248.93 170.598 1249.59 173.508 1250.17 176.272C1250.83 179.036 1251.48 181.691 1252.13 184.237C1252.64 186.347 1253.12 188.456 1253.55 190.566C1254.06 192.676 1254.54 194.64 1254.97 196.458C1255.41 198.204 1255.74 199.695 1255.95 200.932C1256.24 202.169 1256.43 202.969 1256.5 203.332C1257.44 207.188 1258.39 210.716 1259.34 213.917C1260.35 217.19 1261.41 219.954 1262.5 222.209C1263.59 224.537 1264.76 226.319 1265.99 227.556C1267.3 228.865 1268.68 229.52 1270.14 229.52H1270.36C1272.18 229.447 1273.7 228.647 1274.94 227.119C1276.18 225.592 1277.16 223.519 1277.89 220.9C1278.69 218.354 1279.27 215.335 1279.63 211.843C1280 208.424 1280.18 204.715 1280.18 200.714V159.577C1280.18 157.541 1280.03 155.795 1279.74 154.34C1279.52 152.885 1279.05 151.721 1278.32 150.848C1277.67 149.975 1276.69 149.357 1275.38 148.993C1274.14 148.557 1272.54 148.339 1270.58 148.339H1264.25C1267.88 147.684 1270.76 146.52 1272.87 144.847C1274.98 143.101 1276.58 141.028 1277.67 138.627C1278.76 136.227 1279.45 133.572 1279.74 130.662C1280.03 127.68 1280.18 124.588 1280.18 121.387V106.329C1280.18 104.293 1280.03 102.583 1279.74 101.201C1279.52 99.7462 1279.05 98.5823 1278.32 97.7094C1277.67 96.7637 1276.72 96.109 1275.49 95.7453C1274.25 95.3088 1272.65 95.0906 1270.68 95.0906V93.7812H1316.95C1321.97 93.7812 1326.51 94.545 1330.59 96.0727C1334.73 97.5275 1338.19 99.6007 1340.95 102.292C1343.72 104.911 1345.65 107.857 1346.74 111.13C1347.9 114.331 1348.48 117.532 1348.48 120.733C1348.48 121.169 1348.48 121.606 1348.48 122.042C1348.48 122.478 1348.45 122.951 1348.37 123.46C1348.01 126.879 1347.14 129.825 1345.76 132.299C1344.37 134.699 1342.63 136.809 1340.52 138.627C1338.48 140.446 1336.15 142.046 1333.53 143.428C1330.99 144.738 1328.37 145.974 1325.68 147.138L1346.74 191.548C1347.25 192.712 1347.86 193.876 1348.59 195.04C1349.32 196.204 1350.12 197.295 1350.99 198.313C1351.94 199.259 1352.96 200.059 1354.05 200.714C1355.21 201.296 1356.48 201.587 1357.87 201.587V202.787H1321.53V201.587H1337.03C1334.63 200.423 1332.7 198.786 1331.24 196.676C1329.79 194.567 1328.52 192.457 1327.42 190.348L1310.18 154.558C1307.2 156.449 1304.73 158.523 1302.76 160.778C1301.09 162.742 1299.75 164.96 1298.73 167.434C1297.71 169.834 1297.02 172.162 1296.65 174.417C1296.44 175.654 1296.29 176.781 1296.22 177.8C1296.14 178.745 1296.11 179.727 1296.11 180.746C1296.11 181.546 1296.14 182.855 1296.22 184.674C1296.36 186.492 1296.84 188.675 1297.64 191.221C1298.14 192.967 1298.51 194.676 1298.73 196.349C1299.02 197.949 1299.16 199.586 1299.16 201.259C1299.16 202.787 1298.87 205.224 1298.29 208.57C1297.85 211.698 1296.25 215.153 1293.49 218.936C1290.8 222.646 1287.27 225.556 1282.91 227.665C1278.61 229.847 1273.74 230.939 1268.28 230.939C1264.14 230.939 1260.39 230.175 1257.04 228.647C1253.7 227.119 1250.72 225.01 1248.1 222.318C1245.55 219.7 1243.37 216.608 1241.55 213.044C1239.73 209.479 1238.28 205.66 1237.19 201.587C1236.97 200.859 1236.71 199.841 1236.42 198.531C1236.13 197.222 1235.8 195.767 1235.44 194.167C1235.08 192.494 1234.68 190.748 1234.24 188.929C1233.88 187.111 1233.48 185.292 1233.04 183.474C1232.46 181.364 1231.91 179.218 1231.4 177.036C1230.89 174.781 1230.35 172.417 1229.77 169.943C1228.89 166.161 1227.37 162.851 1225.18 160.014C1223.07 157.177 1220.67 154.813 1217.98 152.921C1215.29 151.03 1212.49 149.612 1209.58 148.666C1206.67 147.648 1203.98 147.138 1201.51 147.138C1201.51 147.211 1201.14 148.339 1200.41 150.521C1199.76 152.63 1198.89 155.322 1197.8 158.595C1196.78 161.869 1195.65 165.397 1194.41 169.18C1193.25 172.962 1192.12 176.527 1191.03 179.873C1189.94 183.219 1189.03 186.092 1188.3 188.493C1187.58 190.821 1187.18 192.13 1187.1 192.421C1186.81 193.367 1186.67 194.276 1186.67 195.149C1186.67 195.658 1186.74 196.313 1186.88 197.113C1187.1 197.84 1187.61 198.568 1188.41 199.295C1189.21 200.095 1190.19 200.677 1191.36 201.041C1192.52 201.405 1193.83 201.587 1195.29 201.587V202.787H1175.43ZM1299.16 147.138C1295.82 154.485 1293.23 161.942 1291.42 169.507C1289.6 177.072 1288.4 184.928 1287.82 193.076C1288.4 187.838 1289.38 183.219 1290.76 179.218C1292.22 175.217 1293.89 171.653 1295.78 168.525C1297.74 165.324 1299.85 162.487 1302.11 160.014C1304.44 157.468 1306.8 155.031 1309.2 152.703C1311.46 150.521 1313.68 148.375 1315.86 146.265C1318.04 144.156 1320 141.937 1321.75 139.609C1323.5 137.209 1324.99 134.627 1326.22 131.862C1327.46 129.025 1328.26 125.788 1328.62 122.151C1328.7 121.424 1328.73 120.733 1328.73 120.078C1328.81 119.423 1328.84 118.769 1328.84 118.114C1328.84 115.859 1328.59 113.422 1328.08 110.803C1327.57 108.112 1326.51 105.529 1324.91 103.056C1323.31 100.583 1321.28 98.655 1318.8 97.2729C1316.33 95.8181 1313.46 95.0906 1310.18 95.0906H1308.11C1304.26 95.0906 1301.71 95.8908 1300.47 97.4911C1299.24 99.0188 1298.62 101.528 1298.62 105.02V124.77C1298.62 128.552 1298.07 131.753 1296.98 134.372C1295.89 136.918 1294.47 139.064 1292.73 140.81C1290.98 142.483 1289.05 143.829 1286.94 144.847C1284.83 145.793 1282.76 146.556 1280.72 147.138H1299.16ZM1207.18 129.134C1206.31 131.899 1205.4 134.772 1204.45 137.754C1203.51 140.737 1202.52 143.865 1201.51 147.138H1239.7C1237.44 146.702 1235.26 146.011 1233.15 145.065C1231.11 144.12 1229.18 142.81 1227.37 141.137C1225.62 139.464 1224.02 137.318 1222.56 134.699C1221.18 132.008 1220.02 128.698 1219.07 124.77C1218.71 123.315 1218.38 121.933 1218.09 120.623C1217.8 119.241 1217.47 117.932 1217.11 116.695C1216.6 114.513 1216.09 112.403 1215.58 110.367C1215.14 108.257 1214.82 106.73 1214.6 105.784C1214.38 106.657 1213.98 107.93 1213.4 109.603C1212.89 111.203 1212.31 113.058 1211.65 115.168C1211 117.277 1210.27 119.532 1209.47 121.933C1208.67 124.333 1207.91 126.734 1207.18 129.134ZM1349.95 148.339C1353.22 147.393 1356.24 145.756 1359 143.428C1361.84 141.028 1363.95 137.5 1365.33 132.844C1367.08 127.025 1369.66 121.642 1373.08 116.695C1376.57 111.676 1380.68 107.384 1385.41 103.82C1390.21 100.183 1395.48 97.3457 1401.23 95.3088C1407.05 93.272 1413.16 92.2536 1419.56 92.2536C1424.36 92.2536 1428.98 92.8356 1433.42 93.9995C1437.93 95.1634 1442.15 96.8365 1446.08 99.0188C1450.08 101.128 1453.75 103.674 1457.1 106.657C1460.44 109.639 1463.39 112.985 1465.94 116.695L1471.83 111.13L1472.7 112.003C1471.9 112.658 1470.3 114.077 1467.9 116.259C1465.57 118.441 1462.84 120.987 1459.72 123.897C1456.66 126.807 1453.39 129.862 1449.9 133.063C1446.48 136.191 1443.31 139.1 1440.4 141.792C1437.49 144.483 1435.06 146.775 1433.09 148.666C1431.13 150.485 1430.07 151.467 1429.93 151.612L1429.06 150.63L1439.97 140.591C1442.88 137.9 1445.02 134.918 1446.41 131.644C1447.13 129.971 1447.64 128.48 1447.93 127.17C1448.3 125.861 1448.51 124.733 1448.59 123.788C1448.66 122.842 1448.7 122.078 1448.7 121.496C1448.7 120.914 1448.7 120.551 1448.7 120.405C1448.7 117.35 1448.15 114.222 1447.06 111.021C1445.97 107.821 1444.19 104.911 1441.71 102.292C1439.17 99.6007 1436.04 97.4911 1432.33 95.9635C1428.69 94.3632 1424.44 93.563 1419.56 93.563C1414.69 93.563 1410.43 94.4723 1406.8 96.2909C1403.23 98.0367 1400.14 100.401 1397.52 103.383C1394.98 106.366 1392.83 109.857 1391.08 113.858C1389.41 117.786 1388.07 121.969 1387.05 126.407C1386.17 129.753 1385.16 132.553 1383.99 134.808C1382.9 137.063 1381.55 138.991 1379.95 140.591C1378.35 142.119 1376.43 143.392 1374.17 144.41C1371.99 145.429 1369.37 146.338 1366.31 147.138H1409.42C1407.6 147.138 1405.27 147.357 1402.43 147.793C1399.67 148.23 1396.9 149.248 1394.14 150.848C1392.39 151.867 1390.87 153.285 1389.56 155.104C1388.25 156.85 1387.41 158.668 1387.05 160.559C1386.9 161.505 1386.76 162.378 1386.61 163.178C1386.54 163.906 1386.5 164.633 1386.5 165.361C1386.5 166.161 1386.54 167.034 1386.61 167.979C1386.76 168.852 1386.9 169.798 1387.05 170.816C1388.21 175.908 1389.77 180.527 1391.74 184.674C1393.78 188.747 1396.14 192.239 1398.83 195.149C1401.6 197.986 1404.72 200.168 1408.21 201.696C1411.71 203.223 1415.49 203.987 1419.56 203.987C1427.42 203.987 1434.58 202.132 1441.06 198.422C1447.53 194.64 1452.73 188.893 1456.66 181.182L1461.68 186.201C1456.44 192.021 1450.26 196.604 1443.13 199.95C1436.08 203.296 1428.33 205.006 1419.89 205.078H1419.24C1413.63 205.078 1408.11 204.278 1402.65 202.678C1397.19 201.077 1392.1 198.822 1387.37 195.913C1382.72 192.93 1378.64 189.329 1375.15 185.11C1371.66 180.818 1369.15 176.054 1367.62 170.816C1367.41 169.798 1367.22 168.816 1367.08 167.87C1366.93 166.925 1366.86 166.015 1366.86 165.142C1366.86 163.906 1367.08 162.451 1367.52 160.778C1368.02 159.032 1369.01 157.322 1370.46 155.649C1371.92 153.976 1373.63 152.63 1375.59 151.612C1377.63 150.594 1379.63 149.757 1381.59 149.102C1382.03 148.957 1382.43 148.848 1382.79 148.775C1383.15 148.63 1383.52 148.484 1383.88 148.339H1349.95ZM1501.98 147.138C1498.71 146.92 1495.58 146.447 1492.59 145.72C1489.61 144.92 1486.96 143.792 1484.63 142.337C1482.3 140.81 1480.63 139.1 1479.61 137.209C1478.59 135.245 1478.08 133.208 1478.08 131.098C1478.08 130.735 1478.08 130.335 1478.08 129.898C1478.16 129.462 1478.23 129.025 1478.3 128.589C1479.17 123.642 1481.28 118.987 1484.63 114.622C1487.98 110.185 1492.09 106.329 1496.96 103.056C1501.83 99.7098 1507.22 97.0911 1513.11 95.1997C1519 93.2357 1524.97 92.2536 1531 92.2536C1538.79 92.2536 1546.1 93.7449 1552.94 96.7273C1559.77 99.6371 1565.74 103.674 1570.83 108.839C1575.99 113.931 1580.03 119.932 1582.94 126.843C1585.92 133.681 1587.42 140.992 1587.42 148.775C1587.42 156.559 1585.92 163.869 1582.94 170.707C1580.03 177.545 1575.99 183.51 1570.83 188.602C1565.74 193.694 1559.77 197.731 1552.94 200.714C1546.1 203.623 1538.79 205.078 1531 205.078C1523.95 205.078 1517.29 203.878 1511.04 201.478C1504.85 199.004 1499.29 195.658 1494.34 191.439C1489.47 187.147 1485.36 182.128 1482.01 176.381C1478.66 170.562 1476.41 164.306 1475.25 157.613C1474.95 156.013 1474.63 154.558 1474.26 153.249C1473.97 151.939 1473.5 150.848 1472.84 149.975C1472.26 149.03 1471.46 148.339 1470.44 147.902C1469.5 147.393 1468.26 147.138 1466.73 147.138H1501.98ZM1484.85 148.339C1486.59 148.339 1487.98 148.666 1488.99 149.321C1490.01 149.903 1490.81 150.703 1491.39 151.721C1492.05 152.74 1492.49 153.903 1492.7 155.213C1492.99 156.449 1493.25 157.722 1493.47 159.032C1493.98 164.851 1494.96 170.453 1496.41 175.836C1497.94 181.219 1500.16 185.947 1503.07 190.02C1505.98 194.094 1509.69 197.368 1514.2 199.841C1518.78 202.241 1524.38 203.442 1531 203.442C1538.57 203.442 1544.79 201.878 1549.66 198.75C1554.61 195.549 1558.5 191.366 1561.34 186.201C1564.17 181.037 1566.14 175.217 1567.23 168.743C1568.39 162.196 1568.98 155.54 1568.98 148.775C1568.98 142.01 1568.39 135.354 1567.23 128.807C1566.14 122.26 1564.17 116.404 1561.34 111.24C1558.5 106.075 1554.61 101.928 1549.66 98.8005C1544.79 95.5998 1538.57 93.9995 1531 93.9995C1526.06 93.9995 1521.58 94.7633 1517.58 96.2909C1513.65 97.8185 1510.2 99.928 1507.22 102.62C1504.31 105.311 1501.87 108.439 1499.91 112.003C1498.01 115.568 1496.67 119.423 1495.87 123.57C1495.8 124.079 1495.72 124.588 1495.65 125.097C1495.65 125.534 1495.65 125.97 1495.65 126.407C1495.65 128.08 1495.94 129.935 1496.52 131.971C1497.1 134.008 1498.23 136.081 1499.91 138.191C1501.58 140.301 1503.65 142.155 1506.13 143.756C1508.6 145.283 1511.4 146.447 1514.53 147.247C1515.4 147.538 1516.42 147.684 1517.58 147.684C1519.04 147.684 1520.42 147.429 1521.73 146.92C1523.11 146.411 1524.31 145.683 1525.33 144.738C1526.35 143.719 1527.18 142.483 1527.84 141.028C1528.49 139.573 1528.86 137.9 1528.93 136.009C1529.08 139.5 1530.13 142.265 1532.09 144.301C1534.06 146.265 1537.11 147.611 1541.26 148.339C1537.33 149.066 1534.28 150.412 1532.09 152.376C1529.98 154.267 1528.93 157.031 1528.93 160.669C1528.57 156.595 1527 153.54 1524.24 151.503C1521.47 149.393 1518.27 148.339 1514.64 148.339H1484.85ZM1585.78 187.838C1586.36 187.329 1587.6 186.201 1589.49 184.456C1591.45 182.71 1593.67 180.709 1596.15 178.454C1598.62 176.127 1601.2 173.726 1603.89 171.253C1606.66 168.707 1609.2 166.379 1611.53 164.269C1613.86 162.087 1615.79 160.269 1617.31 158.814C1618.91 157.359 1619.79 156.559 1619.93 156.413L1620.59 157.177L1611.86 165.142C1609.68 167.252 1607.97 169.58 1606.73 172.126C1605.57 175.035 1604.98 177.109 1604.98 178.345C1604.98 179.145 1604.95 179.764 1604.87 180.2C1604.87 180.637 1604.87 180.928 1604.87 181.073C1604.87 183.619 1605.35 186.165 1606.29 188.711C1607.24 191.184 1608.66 193.439 1610.55 195.476C1612.51 197.513 1614.95 199.186 1617.86 200.495C1620.77 201.732 1624.22 202.35 1628.23 202.35C1630.26 202.35 1632.26 201.95 1634.23 201.15C1636.26 200.35 1638.15 199.222 1639.9 197.768C1641.65 196.313 1643.14 194.531 1644.37 192.421C1645.68 190.239 1646.63 187.802 1647.21 185.11C1647.57 183.073 1647.76 181.328 1647.76 179.873C1647.76 178.854 1647.61 177.472 1647.32 175.726C1647.1 173.908 1646.37 171.907 1645.14 169.725C1642.66 165.506 1638.63 161.832 1633.03 158.705C1631.43 157.904 1630.52 157.141 1630.3 156.413C1630.08 155.613 1629.97 154.995 1629.97 154.558C1629.97 153.903 1630.19 153.176 1630.63 152.376C1631.06 151.503 1631.9 150.666 1633.14 149.866C1634.3 149.212 1635.72 148.702 1637.39 148.339H1603.35C1604.51 147.757 1605.24 147.175 1605.53 146.593C1605.89 146.011 1606.07 145.393 1606.07 144.738C1606.07 144.592 1606.04 144.301 1605.97 143.865C1605.97 143.428 1605.71 142.737 1605.2 141.792C1604.69 140.846 1604.07 139.937 1603.35 139.064C1601.24 136.227 1599.82 133.354 1599.09 130.444C1598.36 127.534 1598 124.843 1598 122.369C1598 121.351 1598.11 119.751 1598.33 117.568C1598.55 115.386 1599.42 112.658 1600.95 109.385C1602.4 106.111 1604.37 103.238 1606.84 100.765C1609.31 98.3641 1612.22 96.4364 1615.57 94.9815C1618.91 93.5266 1622.59 92.7992 1626.59 92.7992H1627.13C1634.48 92.7992 1641.21 94.4723 1647.32 97.8185C1653.43 101.092 1658.41 105.566 1662.27 111.24L1666.74 107.093L1667.4 107.748C1666.82 108.257 1665.62 109.348 1663.8 111.021C1662.05 112.622 1659.98 114.513 1657.58 116.695C1655.25 118.878 1652.78 121.169 1650.16 123.57C1647.54 125.97 1645.1 128.189 1642.85 130.226C1640.66 132.262 1638.81 133.972 1637.28 135.354C1635.83 136.736 1635.03 137.5 1634.88 137.645L1634.34 136.991L1642.63 129.353C1644.88 127.17 1646.48 124.915 1647.43 122.588C1648.45 120.187 1649.03 118.259 1649.18 116.804C1649.18 116.004 1649.18 115.422 1649.18 115.059C1649.25 114.622 1649.28 114.368 1649.28 114.295C1649.28 111.894 1648.85 109.53 1647.98 107.202C1647.1 104.802 1645.76 102.62 1643.94 100.655C1642.12 98.6914 1639.83 97.0911 1637.06 95.8544C1634.3 94.6178 1631.06 93.9631 1627.35 93.8904C1623.93 93.9631 1620.95 94.6178 1618.4 95.8544C1615.86 97.0183 1613.75 98.5459 1612.08 100.437C1610.48 102.256 1609.28 104.329 1608.48 106.657C1607.68 108.985 1607.28 111.276 1607.28 113.531V114.186C1607.28 114.404 1607.28 114.695 1607.28 115.059C1607.35 115.35 1607.38 115.677 1607.38 116.041C1607.38 117.786 1608.08 119.896 1609.46 122.369C1612.44 127.461 1616.84 131.644 1622.66 134.918C1624.62 135.863 1625.86 136.882 1626.37 137.973C1626.95 139.064 1627.24 140.01 1627.24 140.81C1627.24 141.246 1627.13 141.901 1626.92 142.774C1626.7 143.574 1625.93 144.447 1624.62 145.393C1623.46 146.338 1621.82 146.92 1619.71 147.138H1662.81C1661.43 147.138 1660.12 147.32 1658.89 147.684C1657.72 147.975 1656.78 148.52 1656.05 149.321C1655.32 150.121 1654.92 150.848 1654.85 151.503C1654.78 152.085 1654.74 152.449 1654.74 152.594C1654.74 153.54 1655.1 154.74 1655.83 156.195C1656.56 157.65 1657.25 159.141 1657.9 160.669C1658.56 162.196 1659.1 163.869 1659.54 165.688C1659.98 167.579 1660.2 169.107 1660.2 170.271C1660.27 171.362 1660.3 171.98 1660.3 172.126C1660.3 173.144 1660.23 174.235 1660.09 175.399C1660.01 176.563 1659.8 177.8 1659.43 179.109C1658.63 182.601 1657.25 185.838 1655.29 188.82C1653.32 191.803 1650.92 194.385 1648.08 196.567C1645.25 198.75 1642.12 200.459 1638.7 201.696C1635.28 202.932 1631.79 203.551 1628.23 203.551C1620.51 203.551 1613.46 201.805 1607.06 198.313C1600.66 194.749 1595.42 190.02 1591.34 184.128L1586.54 188.602L1585.78 187.838ZM696.551 323.339C698.806 322.757 700.879 321.847 702.77 320.611C704.735 319.374 706.408 317.701 707.79 315.591C709.245 313.482 710.372 310.863 711.172 307.735C711.972 304.535 712.373 300.752 712.373 296.387V281.329C712.373 279.293 712.227 277.583 711.936 276.201C711.718 274.746 711.281 273.582 710.627 272.709C709.972 271.764 709.026 271.109 707.79 270.745C706.553 270.309 704.953 270.091 702.989 270.091V268.781H745.98C754.127 268.999 761.474 270.527 768.021 273.364C774.568 276.128 780.133 279.947 784.716 284.821C789.371 289.695 792.936 295.442 795.409 302.061C797.882 308.681 799.119 315.882 799.119 323.666C799.119 331.74 797.809 339.124 795.191 345.816C792.645 352.436 789.044 358.11 784.388 362.838C779.805 367.566 774.313 371.24 767.912 373.859C761.583 376.478 754.673 377.787 747.18 377.787H702.989V376.587C705.026 376.514 706.662 376.259 707.899 375.823C709.135 375.386 710.081 374.732 710.736 373.859C711.391 372.986 711.827 371.858 712.045 370.476C712.263 369.094 712.373 367.385 712.373 365.348V342.543C712.373 339.415 712.955 336.76 714.118 334.577C715.355 332.395 716.846 330.577 718.592 329.122C720.411 327.594 722.338 326.394 724.375 325.521C726.412 324.575 728.231 323.848 729.831 323.339H696.551ZM755.909 322.138C754.891 322.138 753.545 322.284 751.872 322.575C750.272 322.866 748.526 323.375 746.635 324.102C744.816 324.757 742.961 325.666 741.07 326.83C739.178 327.921 737.469 329.34 735.941 331.086C734.486 332.759 733.286 334.759 732.341 337.087C731.395 339.342 730.922 341.961 730.922 344.943V366.657C730.922 368.621 731.068 370.258 731.359 371.567C731.65 372.877 732.122 373.895 732.777 374.623C733.504 375.35 734.486 375.859 735.723 376.15C736.96 376.441 738.524 376.587 740.415 376.587H749.035C755.218 376.587 760.31 375.314 764.311 372.768C768.385 370.222 771.586 366.657 773.913 362.074C776.314 357.492 777.951 352.072 778.823 345.816C779.769 339.488 780.242 332.577 780.242 325.084C780.242 316.792 779.769 309.263 778.823 302.498C777.878 295.66 775.986 289.804 773.149 284.93C770.24 280.129 766.239 276.456 761.147 273.91C756.128 271.364 749.617 270.091 741.615 270.091H740.415C736.56 270.091 734.014 270.891 732.777 272.491C731.54 274.019 730.922 276.528 730.922 280.02V299.77C730.922 303.552 730.377 306.753 729.285 309.372C728.194 311.918 726.776 314.064 725.03 315.81C723.284 317.483 721.356 318.829 719.247 319.847C717.137 320.793 715.064 321.556 713.027 322.138H755.909ZM802.616 323.339C804.798 322.757 806.835 321.847 808.726 320.611C810.69 319.374 812.363 317.701 813.745 315.591C815.2 313.482 816.328 310.863 817.128 307.735C818.001 304.535 818.437 300.752 818.437 296.387V281.329C818.437 279.293 818.292 277.583 818.001 276.201C817.783 274.746 817.346 273.582 816.691 272.709C816.037 271.764 815.091 271.109 813.854 270.745C812.618 270.309 811.017 270.091 809.053 270.091V268.781H871.794C872.958 268.781 874.122 268.745 875.286 268.672C876.45 268.599 877.505 268.308 878.45 267.799C879.396 267.217 880.051 266.526 880.414 265.726C880.778 264.853 880.96 263.907 880.96 262.889C880.96 262.525 880.96 262.234 880.96 262.016C880.96 261.725 880.924 261.398 880.851 261.034L882.051 260.707L888.816 297.588L887.616 297.806C886.743 293.587 885.87 289.768 884.997 286.349C884.124 282.93 883.142 280.02 882.051 277.62C881.033 275.219 879.832 273.364 878.45 272.055C877.141 270.745 875.577 270.091 873.758 270.091H846.48C842.624 270.091 840.078 270.891 838.842 272.491C837.605 274.019 836.987 276.528 836.987 280.02V299.77C836.987 303.552 836.441 306.753 835.35 309.372C834.259 311.918 832.84 314.064 831.095 315.81C829.349 317.483 827.421 318.829 825.311 319.847C823.202 320.793 821.129 321.556 819.092 322.138H857.609C861.101 322.138 863.647 321.156 865.247 319.192C866.848 317.228 867.648 314.828 867.648 311.991V297.369H868.848V347.999H867.648V333.268C867.648 330.504 866.811 328.176 865.138 326.285C863.465 324.321 860.992 323.339 857.719 323.339C855.1 323.339 852.554 323.775 850.081 324.648C847.607 325.521 845.389 326.83 843.425 328.576C841.533 330.322 839.969 332.577 838.733 335.341C837.569 338.033 836.987 341.233 836.987 344.943V366.657C836.987 368.621 837.096 370.258 837.314 371.567C837.605 372.877 838.114 373.895 838.842 374.623C839.569 375.35 840.551 375.859 841.788 376.15C843.024 376.441 844.588 376.587 846.48 376.587H876.377C878.196 376.587 879.76 375.932 881.069 374.623C882.451 373.313 883.651 371.458 884.67 369.058C885.761 366.584 886.743 363.638 887.616 360.219C888.489 356.8 889.362 352.981 890.235 348.762L891.435 349.09L884.67 385.861L883.47 385.643C883.542 385.279 883.579 384.952 883.579 384.661C883.579 384.443 883.579 384.152 883.579 383.788C883.579 382.77 883.397 381.824 883.033 380.951C882.669 380.151 882.015 379.496 881.069 378.987C880.123 378.405 879.069 378.041 877.905 377.896C876.814 377.823 875.686 377.787 874.522 377.787H809.053V376.587C811.09 376.514 812.727 376.259 813.964 375.823C815.2 375.386 816.146 374.732 816.801 373.859C817.455 372.986 817.892 371.858 818.11 370.476C818.328 369.094 818.437 367.385 818.437 365.348V342.543C818.437 339.415 819.056 336.76 820.292 334.577C821.602 332.395 823.166 330.577 824.984 329.122C826.803 327.594 828.73 326.394 830.767 325.521C832.877 324.575 834.768 323.848 836.441 323.339H802.616ZM937.431 376.587C939.177 376.514 940.668 376.223 941.905 375.714C943.141 375.205 944.196 374.513 945.069 373.641C945.942 372.695 946.67 371.531 947.251 370.149C947.906 368.767 948.524 367.166 949.106 365.348L973.985 287.003C975.148 283.73 975.767 281.439 975.84 280.129C975.985 278.747 976.058 277.838 976.058 277.401C976.058 275.001 975.367 273.219 973.985 272.055C972.602 270.818 970.384 270.2 967.329 270.2V268.781H993.516C993.516 268.854 993.807 270.127 994.389 272.6C994.971 275.074 995.735 278.383 996.68 282.53C997.626 286.603 998.717 291.295 999.954 296.606C1001.19 301.843 1002.46 307.299 1003.77 312.973C1005.16 318.647 1006.5 324.357 1007.81 330.104C1009.12 335.778 1010.36 341.052 1011.52 345.925L1030.29 287.003C1031.45 283.73 1032.07 281.439 1032.14 280.129C1032.29 278.747 1032.36 277.838 1032.36 277.401C1032.36 275.001 1031.67 273.219 1030.29 272.055C1028.91 270.818 1026.69 270.2 1023.63 270.2V268.781H1049.82L1050.26 270.854C1050.55 272.164 1050.95 273.873 1051.46 275.983C1051.97 278.092 1052.47 280.311 1052.98 282.639C1053.57 284.894 1054.11 287.076 1054.62 289.186C1055.13 291.295 1055.53 292.968 1055.82 294.205L1056.26 296.387C1057.35 300.752 1058.51 304.535 1059.75 307.735C1061.06 310.863 1062.48 313.482 1064 315.591C1065.53 317.701 1067.2 319.374 1069.02 320.611C1070.84 321.847 1072.84 322.757 1075.02 323.339H1045.89C1048 323.702 1050.11 324.357 1052.22 325.303C1054.4 326.248 1056.44 327.485 1058.33 329.013C1060.22 330.54 1061.93 332.432 1063.46 334.687C1064.99 336.942 1066.19 339.56 1067.06 342.543L1073.17 368.949C1073.9 371.786 1075.02 373.786 1076.55 374.95C1078.08 376.041 1080.26 376.587 1083.1 376.587V377.787H1045.35V376.587C1048.91 376.587 1051.27 375.896 1052.44 374.513C1052.95 373.859 1053.35 373.168 1053.64 372.44C1053.93 371.64 1054.07 370.731 1054.07 369.712C1054.07 368.476 1053.86 367.021 1053.42 365.348L1048.62 344.943C1047.53 340.433 1045.75 336.723 1043.27 333.814C1040.8 330.831 1038.11 328.503 1035.2 326.83C1032.36 325.084 1029.56 323.884 1026.8 323.23C1024.03 322.502 1021.89 322.138 1020.36 322.138L1019.81 323.775C1019.67 324.357 1019.45 325.012 1019.16 325.739C1018.94 326.394 1018.69 327.194 1018.39 328.14C1017.38 331.486 1016.58 334.468 1015.99 337.087C1015.48 339.706 1015.16 341.997 1015.01 343.961C1015.01 345.925 1014.98 347.526 1014.9 348.762C1014.9 349.999 1014.9 350.908 1014.9 351.49C1014.9 357.31 1015.56 363.093 1016.87 368.839C1017.59 371.749 1018.72 373.786 1020.25 374.95C1021.78 376.041 1023.96 376.587 1026.8 376.587V377.787H989.042V376.587C992.607 376.587 994.971 375.896 996.135 374.513C997.226 373.204 997.772 371.604 997.772 369.712C997.772 368.621 997.59 367.166 997.226 365.348C995.407 357.71 993.698 350.508 992.098 343.743C990.497 336.978 988.97 330.54 987.515 324.43C986.278 319.265 985.042 314.209 983.805 309.263C982.641 304.244 981.586 299.733 980.641 295.733C979.695 291.659 978.895 288.276 978.24 285.585C977.585 282.893 977.222 281.329 977.149 280.893C976.858 281.839 976.458 283.148 975.949 284.821C975.439 286.494 974.858 288.386 974.203 290.495C973.548 292.605 972.821 294.86 972.021 297.26C971.22 299.588 970.457 301.916 969.729 304.244C968.856 307.008 967.947 309.881 967.001 312.864C966.056 315.773 965.074 318.865 964.055 322.138C964.055 322.211 963.691 323.339 962.964 325.521C962.309 327.63 961.473 330.322 960.454 333.595C959.436 336.869 958.308 340.397 957.072 344.18C955.835 347.962 954.671 351.527 953.58 354.873C952.562 358.219 951.652 361.092 950.852 363.493C950.125 365.821 949.725 367.13 949.652 367.421C949.434 368.512 949.325 369.421 949.325 370.149C949.325 370.658 949.397 371.313 949.543 372.113C949.761 372.84 950.27 373.568 951.071 374.295C952.598 375.823 954.853 376.587 957.836 376.587V377.787H937.431V376.587ZM1026.14 304.134C1024.25 309.663 1022.32 315.664 1020.36 322.138H1058.55C1056.29 321.702 1054.11 321.011 1052 320.065C1049.96 319.12 1048.04 317.81 1046.22 316.137C1044.47 314.464 1042.87 312.318 1041.42 309.699C1040.04 307.008 1038.87 303.698 1037.93 299.77C1037.56 298.315 1037.23 296.933 1036.94 295.623C1036.65 294.241 1036.33 292.932 1035.96 291.695C1035.45 289.513 1034.94 287.403 1034.43 285.367C1034 283.257 1033.67 281.73 1033.45 280.784C1033.23 281.657 1032.87 282.93 1032.36 284.603C1031.85 286.276 1031.27 288.167 1030.62 290.277C1029.96 292.386 1029.23 294.641 1028.43 297.042C1027.63 299.442 1026.87 301.807 1026.14 304.134ZM1084.67 323.339C1086.86 322.757 1088.89 321.847 1090.78 320.611C1092.75 319.374 1094.42 317.701 1095.8 315.591C1097.26 313.482 1098.39 310.863 1099.19 307.735C1100.06 304.535 1100.49 300.752 1100.49 296.387V281.329C1100.49 279.293 1100.35 277.583 1100.06 276.201C1099.84 274.746 1099.4 273.582 1098.75 272.709C1098.09 271.764 1097.15 271.109 1095.91 270.745C1094.68 270.309 1093.07 270.091 1091.11 270.091V268.781H1153.85C1155.02 268.781 1156.18 268.745 1157.34 268.672C1158.51 268.599 1159.56 268.308 1160.51 267.799C1161.45 267.217 1162.11 266.526 1162.47 265.726C1162.84 264.853 1163.02 263.907 1163.02 262.889C1163.02 262.525 1163.02 262.234 1163.02 262.016C1163.02 261.725 1162.98 261.398 1162.91 261.034L1164.11 260.707L1170.87 297.588L1169.67 297.806C1168.8 293.587 1167.93 289.768 1167.05 286.349C1166.18 282.93 1165.2 280.02 1164.11 277.62C1163.09 275.219 1161.89 273.364 1160.51 272.055C1159.2 270.745 1157.63 270.091 1155.82 270.091H1128.54C1124.68 270.091 1122.14 270.891 1120.9 272.491C1119.66 274.019 1119.04 276.528 1119.04 280.02V299.77C1119.04 303.552 1118.5 306.753 1117.41 309.372C1116.32 311.918 1114.9 314.064 1113.15 315.81C1111.41 317.483 1109.48 318.829 1107.37 319.847C1105.26 320.793 1103.19 321.556 1101.15 322.138H1139.67C1143.16 322.138 1145.7 321.156 1147.3 319.192C1148.91 317.228 1149.71 314.828 1149.71 311.991V297.369H1150.91V347.999H1149.71V333.268C1149.71 330.504 1148.87 328.176 1147.2 326.285C1145.52 324.321 1143.05 323.339 1139.78 323.339C1136.58 323.339 1133.7 323.884 1131.16 324.975C1128.61 326.066 1126.43 327.594 1124.61 329.558C1122.86 331.449 1121.48 333.741 1120.46 336.432C1119.52 339.051 1119.04 341.888 1119.04 344.943V366.657C1119.04 368.621 1119.15 370.258 1119.37 371.567C1119.66 372.877 1120.17 373.895 1120.9 374.623C1121.63 375.35 1122.61 375.859 1123.85 376.15C1125.08 376.441 1126.65 376.587 1128.54 376.587H1176.11H1209.61H1225.76C1228.52 376.587 1230.7 375.241 1232.31 372.549C1233.98 369.785 1235.47 365.893 1236.78 360.874H1173.17V359.783C1176.37 359.783 1178.51 359.128 1179.6 357.819C1180.69 356.51 1181.24 354.218 1181.24 350.945V331.086C1181.17 327.958 1180.66 325.739 1179.71 324.43C1178.77 323.12 1176.8 322.393 1173.82 322.247H1202.08C1199.03 322.029 1196.19 321.484 1193.57 320.611C1191.02 319.665 1188.84 318.392 1187.02 316.792C1185.2 315.119 1183.79 313.118 1182.77 310.79C1181.75 308.463 1181.24 305.844 1181.24 302.934V279.365C1181.24 276.165 1180.69 273.801 1179.6 272.273C1178.51 270.673 1176.37 269.872 1173.17 269.872V268.781H1207.97V269.872C1204.48 269.872 1202.26 270.673 1201.32 272.273C1200.37 273.801 1199.9 276.165 1199.9 279.365V298.897C1199.9 302.971 1200.37 306.462 1201.32 309.372C1202.34 312.282 1203.75 314.719 1205.57 316.683C1207.39 318.647 1209.54 320.174 1212.01 321.265C1214.48 322.284 1217.25 322.975 1220.3 323.339H1191.93C1194.84 323.411 1196.88 324.139 1198.04 325.521C1199.21 326.83 1199.83 329.013 1199.9 332.068V351.927C1199.97 354.764 1200.52 356.8 1201.53 358.037C1202.63 359.201 1204.77 359.783 1207.97 359.783H1230.34C1232.16 359.783 1233.65 359.274 1234.81 358.255C1236.05 357.164 1237.07 355.637 1237.87 353.673C1238.67 351.708 1239.36 349.272 1239.94 346.362C1240.6 343.452 1241.33 340.142 1242.13 336.432L1243.11 336.542L1234.05 385.861L1232.85 385.643C1232.92 385.279 1232.96 384.952 1232.96 384.661C1232.96 384.443 1232.96 384.152 1232.96 383.788C1232.96 382.77 1232.78 381.824 1232.41 380.951C1232.05 380.151 1231.4 379.496 1230.45 378.987C1229.5 378.405 1228.45 378.041 1227.29 377.896C1226.19 377.823 1225.07 377.787 1223.9 377.787H1091.11V376.587C1093.15 376.514 1094.78 376.259 1096.02 375.823C1097.26 375.386 1098.2 374.732 1098.86 373.859C1099.51 372.986 1099.95 371.858 1100.17 370.476C1100.39 369.094 1100.49 367.385 1100.49 365.348V342.543C1100.49 339.415 1101.11 336.76 1102.35 334.577C1103.66 332.395 1105.22 330.577 1107.04 329.122C1108.86 327.594 1110.79 326.394 1112.82 325.521C1114.93 324.575 1116.83 323.848 1118.5 323.339H1084.67ZM1279.86 322.138C1276.59 321.92 1273.46 321.447 1270.48 320.72C1267.49 319.92 1264.84 318.792 1262.51 317.337C1260.18 315.81 1258.51 314.1 1257.49 312.209C1256.47 310.245 1255.96 308.208 1255.96 306.098C1255.96 305.735 1255.96 305.335 1255.96 304.898C1256.04 304.462 1256.11 304.025 1256.18 303.589C1257.05 298.642 1259.16 293.987 1262.51 289.622C1265.86 285.185 1269.97 281.329 1274.84 278.056C1279.71 274.71 1285.1 272.091 1290.99 270.2C1296.88 268.236 1302.85 267.254 1308.88 267.254C1316.67 267.254 1323.98 268.745 1330.82 271.727C1337.65 274.637 1343.62 278.674 1348.71 283.839C1353.88 288.931 1357.91 294.932 1360.82 301.843C1363.81 308.681 1365.3 315.992 1365.3 323.775C1365.3 331.559 1363.81 338.869 1360.82 345.707C1357.91 352.545 1353.88 358.51 1348.71 363.602C1343.62 368.694 1337.65 372.731 1330.82 375.714C1323.98 378.623 1316.67 380.078 1308.88 380.078C1301.83 380.078 1295.17 378.878 1288.92 376.478C1282.73 374.004 1277.17 370.658 1272.22 366.439C1267.35 362.147 1263.24 357.128 1259.89 351.381C1256.55 345.562 1254.29 339.306 1253.13 332.613C1252.84 331.013 1252.51 329.558 1252.14 328.249C1251.85 326.939 1251.38 325.848 1250.73 324.975C1250.14 324.03 1249.34 323.339 1248.33 322.902C1247.38 322.393 1246.14 322.138 1244.62 322.138H1279.86ZM1262.73 323.339C1264.47 323.339 1265.86 323.666 1266.88 324.321C1267.89 324.903 1268.69 325.703 1269.28 326.721C1269.93 327.74 1270.37 328.903 1270.58 330.213C1270.88 331.449 1271.13 332.722 1271.35 334.032C1271.86 339.851 1272.84 345.453 1274.29 350.836C1275.82 356.219 1278.04 360.947 1280.95 365.02C1283.86 369.094 1287.57 372.368 1292.08 374.841C1296.66 377.241 1302.26 378.442 1308.88 378.442C1316.45 378.442 1322.67 376.878 1327.54 373.75C1332.49 370.549 1336.38 366.366 1339.22 361.201C1342.06 356.037 1344.02 350.217 1345.11 343.743C1346.27 337.196 1346.86 330.54 1346.86 323.775C1346.86 317.01 1346.27 310.354 1345.11 303.807C1344.02 297.26 1342.06 291.404 1339.22 286.24C1336.38 281.075 1332.49 276.928 1327.54 273.801C1322.67 270.6 1316.45 268.999 1308.88 268.999C1303.94 268.999 1299.46 269.763 1295.46 271.291C1291.53 272.818 1288.08 274.928 1285.1 277.62C1282.19 280.311 1279.75 283.439 1277.79 287.003C1275.9 290.568 1274.55 294.423 1273.75 298.57C1273.68 299.079 1273.6 299.588 1273.53 300.097C1273.53 300.534 1273.53 300.97 1273.53 301.407C1273.53 303.08 1273.82 304.935 1274.4 306.971C1274.99 309.008 1276.11 311.081 1277.79 313.191C1279.46 315.301 1281.53 317.155 1284.01 318.756C1286.48 320.283 1289.28 321.447 1292.41 322.247C1293.28 322.538 1294.3 322.684 1295.46 322.684C1296.92 322.684 1298.3 322.429 1299.61 321.92C1300.99 321.411 1302.19 320.683 1303.21 319.738C1304.23 318.719 1305.07 317.483 1305.72 316.028C1306.37 314.573 1306.74 312.9 1306.81 311.009C1306.96 314.5 1308.01 317.265 1309.98 319.301C1311.94 321.265 1314.99 322.611 1319.14 323.339C1315.21 324.066 1312.16 325.412 1309.98 327.376C1307.87 329.267 1306.81 332.031 1306.81 335.669C1306.45 331.595 1304.88 328.54 1302.12 326.503C1299.35 324.393 1296.15 323.339 1292.52 323.339H1262.73Z" fill="white"/>
<path d="M147.333 67.9998L168.169 186.74L294.666 206.298L168.169 225.856L147.333 344.596L126.497 225.856L0 206.298L126.497 186.74L147.333 67.9998Z" fill="#D9D9D9"/>
<path d="M273.093 0L286.069 73.952L364.852 86.1331L286.069 98.3141L273.093 172.266L260.116 98.3141L181.333 86.1331L260.116 73.952L273.093 0Z" fill="#D9D9D9"/>
</svg>
