<?xml version="1.0" encoding="UTF-8"?>
<!DOCTYPE svg PUBLIC "-//W3C//DTD SVG 1.1//EN" "http://www.w3.org/Graphics/SVG/1.1/DTD/svg11.dtd">
<!-- Creator: CorelDRAW -->
<svg xmlns="http://www.w3.org/2000/svg" xml:space="preserve" width="62.0302mm" height="61.534mm" version="1.1" style="shape-rendering:geometricPrecision; text-rendering:geometricPrecision; image-rendering:optimizeQuality; fill-rule:evenodd; clip-rule:evenodd"
viewBox="0 0 3464.68 3436.97"
 xmlns:xlink="http://www.w3.org/1999/xlink"
 xmlns:xodm="http://www.corel.com/coreldraw/odm/2003">
 <defs>
  <style type="text/css">
   <![CDATA[
    .fil0 {fill:#373435;fill-rule:nonzero}
   ]]>
  </style>
 </defs>
 <g id="Camada_x0020_1">
  <metadata id="CorelCorpID_0Corel-Layer"/>
  <g id="_2392631800144">
   <path class="fil0" d="M2471.76 1771.21c-1121.08,0 -1235.89,544.72 -1235.89,1665.76 0,-1121.04 -114.79,-1665.8 -1235.87,-1665.8 1121.08,0 1235.87,-524.5 1235.87,-1645.58 0,1121.08 114.82,1645.62 1235.89,1645.62z"/>
   <path class="fil0" d="M3312.61 857.28c-584.05,0 -643.88,283.78 -643.88,867.79 0,-584.01 -59.79,-867.79 -643.82,-867.79 584.02,0 643.82,-273.28 643.82,-857.29 0,584.01 59.83,857.29 643.88,857.29z"/>
   <path class="fil0" d="M2364.11 2617.75c-307.69,0 -339.19,149.51 -339.19,457.16 0,-307.65 -31.49,-457.16 -339.13,-457.16 307.64,0 339.13,-143.92 339.13,-451.6 0,307.68 31.5,451.6 339.19,451.6z"/>
   <path class="fil0" d="M3464.68 1940.62c-185.92,0 -204.95,90.35 -204.95,276.22 0,-185.88 -19.03,-276.22 -204.94,-276.22 185.91,0 204.94,-86.97 204.94,-272.85 0,185.88 19.03,272.85 204.95,272.85z"/>
   <path class="fil0" d="M579.59 1237.04c-185.92,0 -204.95,90.35 -204.95,276.24 0,-185.89 -19.03,-276.24 -204.94,-276.24 185.91,0 204.94,-86.97 204.94,-272.85 0,185.88 19.03,272.85 204.95,272.85z"/>
   <path class="fil0" d="M2919.16 3161.41c-113.59,0 -125.21,55.17 -125.21,168.71 0,-113.54 -11.62,-168.71 -125.18,-168.71 113.55,0 125.18,-53.12 125.18,-166.67 0,113.55 11.62,166.67 125.21,166.67z"/>
  </g>
 </g>
</svg>
