<?xml version="1.0" encoding="UTF-8"?>
<!DOCTYPE svg PUBLIC "-//W3C//DTD SVG 1.1//EN" "http://www.w3.org/Graphics/SVG/1.1/DTD/svg11.dtd">
<!-- Creator: CorelDRAW -->
<svg xmlns="http://www.w3.org/2000/svg" xml:space="preserve" width="210mm" height="297mm" version="1.1" style="shape-rendering:geometricPrecision; text-rendering:geometricPrecision; image-rendering:optimizeQuality; fill-rule:evenodd; clip-rule:evenodd"
viewBox="0 0 21000 29700"
 xmlns:xlink="http://www.w3.org/1999/xlink"
 xmlns:xodm="http://www.corel.com/coreldraw/odm/2003">
 <defs>
  <style type="text/css">
   <![CDATA[
    .fil0 {fill:#373435;fill-rule:nonzero}
   ]]>
  </style>
 </defs>
 <g id="Camada_x0020_1">
  <metadata id="CorelCorpID_0Corel-Layer"/>
  <path class="fil0" d="M9372.52 12664.15c-2007.13,0 -2212.69,975.25 -2212.69,2982.31 0,-2007.06 -205.51,-2982.38 -2212.64,-2982.38 2007.13,0 2212.64,-939.05 2212.64,-2946.18 0,2007.13 205.56,2946.25 2212.69,2946.25z"/>
  <path class="fil0" d="M10877.95 11027.89c-1045.65,0 -1152.77,508.06 -1152.77,1553.65 0,-1045.59 -107.05,-1553.65 -1152.66,-1553.65 1045.61,0 1152.66,-489.27 1152.66,-1534.85 0,1045.58 107.12,1534.85 1152.77,1534.85z"/>
  <path class="fil0" d="M9179.79 14179.75c-550.87,0 -607.27,267.68 -607.27,818.48 0,-550.8 -56.38,-818.48 -607.17,-818.48 550.79,0 607.17,-257.67 607.17,-808.53 0,550.86 56.4,808.53 607.27,808.53z"/>
  <path class="fil0" d="M11150.21 12967.45c-332.86,0 -366.93,161.75 -366.93,494.54 0,-332.79 -34.07,-494.54 -366.92,-494.54 332.85,0 366.92,-155.71 366.92,-488.5 0,332.79 34.07,488.5 366.93,488.5z"/>
  <path class="fil0" d="M5984.86 11707.8c-332.87,0 -366.94,161.75 -366.94,494.56 0,-332.81 -34.07,-494.56 -366.91,-494.56 332.84,0 366.91,-155.7 366.91,-488.5 0,332.8 34.07,488.5 366.94,488.5z"/>
  <path class="fil0" d="M10173.52 15153.11c-203.36,0 -224.17,98.78 -224.17,302.06 0,-203.28 -20.81,-302.06 -224.11,-302.06 203.3,0 224.11,-95.1 224.11,-298.4 0,203.3 20.81,298.4 224.17,298.4z"/>
 </g>
</svg>
